<mxfile host="app.diagrams.net" modified="2024-05-03T13:35:10.146Z" agent="Mozilla/5.0 (Windows NT 10.0; Win64; x64) AppleWebKit/537.36 (KHTML, like Gecko) Chrome/124.0.0.0 Safari/537.36" etag="RE9ezBsmvFhU17YVoQZA" version="24.3.1" type="github">
  <diagram name="Página-1" id="EZqhxNwqrDGuFy8XMZJH">
    <mxGraphModel dx="2227" dy="1015" grid="1" gridSize="10" guides="1" tooltips="1" connect="1" arrows="1" fold="1" page="1" pageScale="1" pageWidth="827" pageHeight="1169" math="0" shadow="0">
      <root>
        <mxCell id="0" />
        <mxCell id="1" parent="0" />
        <mxCell id="FA3HhS_Ftb2r7vfs98mW-21" value="" style="edgeStyle=orthogonalEdgeStyle;rounded=0;orthogonalLoop=1;jettySize=auto;html=1;" edge="1" parent="1" source="FA3HhS_Ftb2r7vfs98mW-1" target="FA3HhS_Ftb2r7vfs98mW-20">
          <mxGeometry relative="1" as="geometry" />
        </mxCell>
        <mxCell id="FA3HhS_Ftb2r7vfs98mW-1" value="Proceso promedio_de_notas" style="ellipse;whiteSpace=wrap;html=1;fillColor=#fff2cc;strokeColor=#d6b656;" vertex="1" parent="1">
          <mxGeometry x="329" y="40" width="170" height="40" as="geometry" />
        </mxCell>
        <mxCell id="FA3HhS_Ftb2r7vfs98mW-5" value="" style="edgeStyle=orthogonalEdgeStyle;rounded=0;orthogonalLoop=1;jettySize=auto;html=1;" edge="1" parent="1" source="FA3HhS_Ftb2r7vfs98mW-2" target="FA3HhS_Ftb2r7vfs98mW-4">
          <mxGeometry relative="1" as="geometry" />
        </mxCell>
        <mxCell id="FA3HhS_Ftb2r7vfs98mW-2" value="&quot;Hola, dame tus notas de de la asignatura de Fundamentos de programación, tomando en cuenta que son 6 notas, del 2 al 7 para sacar el Promedio total.&quot;" style="shape=parallelogram;perimeter=parallelogramPerimeter;whiteSpace=wrap;html=1;fixedSize=1;fillColor=#d5e8d4;strokeColor=#82b366;" vertex="1" parent="1">
          <mxGeometry x="-16" y="230" width="860" height="40" as="geometry" />
        </mxCell>
        <mxCell id="FA3HhS_Ftb2r7vfs98mW-7" value="" style="edgeStyle=orthogonalEdgeStyle;rounded=0;orthogonalLoop=1;jettySize=auto;html=1;" edge="1" parent="1" source="FA3HhS_Ftb2r7vfs98mW-4" target="FA3HhS_Ftb2r7vfs98mW-6">
          <mxGeometry relative="1" as="geometry" />
        </mxCell>
        <mxCell id="FA3HhS_Ftb2r7vfs98mW-4" value="N1" style="shape=parallelogram;perimeter=parallelogramPerimeter;whiteSpace=wrap;html=1;fixedSize=1;fillColor=#f8cecc;strokeColor=#b85450;" vertex="1" parent="1">
          <mxGeometry x="386" y="300" width="56" height="30" as="geometry" />
        </mxCell>
        <mxCell id="FA3HhS_Ftb2r7vfs98mW-9" value="" style="edgeStyle=orthogonalEdgeStyle;rounded=0;orthogonalLoop=1;jettySize=auto;html=1;" edge="1" parent="1" source="FA3HhS_Ftb2r7vfs98mW-6" target="FA3HhS_Ftb2r7vfs98mW-8">
          <mxGeometry relative="1" as="geometry" />
        </mxCell>
        <mxCell id="FA3HhS_Ftb2r7vfs98mW-6" value="N2" style="shape=parallelogram;perimeter=parallelogramPerimeter;whiteSpace=wrap;html=1;fixedSize=1;fillColor=#f8cecc;strokeColor=#b85450;" vertex="1" parent="1">
          <mxGeometry x="386" y="360" width="56" height="30" as="geometry" />
        </mxCell>
        <mxCell id="FA3HhS_Ftb2r7vfs98mW-11" value="" style="edgeStyle=orthogonalEdgeStyle;rounded=0;orthogonalLoop=1;jettySize=auto;html=1;" edge="1" parent="1" source="FA3HhS_Ftb2r7vfs98mW-8" target="FA3HhS_Ftb2r7vfs98mW-10">
          <mxGeometry relative="1" as="geometry" />
        </mxCell>
        <mxCell id="FA3HhS_Ftb2r7vfs98mW-8" value="N3" style="shape=parallelogram;perimeter=parallelogramPerimeter;whiteSpace=wrap;html=1;fixedSize=1;fillColor=#f8cecc;strokeColor=#b85450;" vertex="1" parent="1">
          <mxGeometry x="386" y="420" width="56" height="30" as="geometry" />
        </mxCell>
        <mxCell id="FA3HhS_Ftb2r7vfs98mW-13" value="" style="edgeStyle=orthogonalEdgeStyle;rounded=0;orthogonalLoop=1;jettySize=auto;html=1;" edge="1" parent="1" source="FA3HhS_Ftb2r7vfs98mW-10" target="FA3HhS_Ftb2r7vfs98mW-12">
          <mxGeometry relative="1" as="geometry" />
        </mxCell>
        <mxCell id="FA3HhS_Ftb2r7vfs98mW-10" value="N4" style="shape=parallelogram;perimeter=parallelogramPerimeter;whiteSpace=wrap;html=1;fixedSize=1;fillColor=#f8cecc;strokeColor=#b85450;" vertex="1" parent="1">
          <mxGeometry x="386" y="480" width="56" height="30" as="geometry" />
        </mxCell>
        <mxCell id="FA3HhS_Ftb2r7vfs98mW-15" value="" style="edgeStyle=orthogonalEdgeStyle;rounded=0;orthogonalLoop=1;jettySize=auto;html=1;" edge="1" parent="1" source="FA3HhS_Ftb2r7vfs98mW-12" target="FA3HhS_Ftb2r7vfs98mW-14">
          <mxGeometry relative="1" as="geometry" />
        </mxCell>
        <mxCell id="FA3HhS_Ftb2r7vfs98mW-12" value="N5" style="shape=parallelogram;perimeter=parallelogramPerimeter;whiteSpace=wrap;html=1;fixedSize=1;fillColor=#f8cecc;strokeColor=#b85450;" vertex="1" parent="1">
          <mxGeometry x="386" y="540" width="56" height="30" as="geometry" />
        </mxCell>
        <mxCell id="FA3HhS_Ftb2r7vfs98mW-17" value="" style="edgeStyle=orthogonalEdgeStyle;rounded=0;orthogonalLoop=1;jettySize=auto;html=1;" edge="1" parent="1" source="FA3HhS_Ftb2r7vfs98mW-14" target="FA3HhS_Ftb2r7vfs98mW-16">
          <mxGeometry relative="1" as="geometry" />
        </mxCell>
        <mxCell id="FA3HhS_Ftb2r7vfs98mW-14" value="N6" style="shape=parallelogram;perimeter=parallelogramPerimeter;whiteSpace=wrap;html=1;fixedSize=1;fillColor=#f8cecc;strokeColor=#b85450;" vertex="1" parent="1">
          <mxGeometry x="386" y="600" width="56" height="30" as="geometry" />
        </mxCell>
        <mxCell id="FA3HhS_Ftb2r7vfs98mW-19" value="" style="edgeStyle=orthogonalEdgeStyle;rounded=0;orthogonalLoop=1;jettySize=auto;html=1;" edge="1" parent="1" source="FA3HhS_Ftb2r7vfs98mW-16" target="FA3HhS_Ftb2r7vfs98mW-18">
          <mxGeometry relative="1" as="geometry" />
        </mxCell>
        <mxCell id="FA3HhS_Ftb2r7vfs98mW-16" value="Promedio = (N1 + N2 + N3 + N4 + N5 + N6)/6" style="whiteSpace=wrap;html=1;fillColor=#ffe6cc;strokeColor=#d79b00;" vertex="1" parent="1">
          <mxGeometry x="282" y="670" width="264" height="35" as="geometry" />
        </mxCell>
        <mxCell id="FA3HhS_Ftb2r7vfs98mW-24" value="" style="edgeStyle=orthogonalEdgeStyle;rounded=0;orthogonalLoop=1;jettySize=auto;html=1;" edge="1" parent="1" source="FA3HhS_Ftb2r7vfs98mW-18" target="FA3HhS_Ftb2r7vfs98mW-23">
          <mxGeometry relative="1" as="geometry" />
        </mxCell>
        <mxCell id="FA3HhS_Ftb2r7vfs98mW-18" value="&quot;Tu promedio de notas es:&quot;, Promedio" style="shape=parallelogram;perimeter=parallelogramPerimeter;whiteSpace=wrap;html=1;fixedSize=1;fillColor=#d5e8d4;strokeColor=#82b366;" vertex="1" parent="1">
          <mxGeometry x="296" y="760" width="236" height="27.5" as="geometry" />
        </mxCell>
        <mxCell id="FA3HhS_Ftb2r7vfs98mW-22" style="edgeStyle=orthogonalEdgeStyle;rounded=0;orthogonalLoop=1;jettySize=auto;html=1;exitX=0.5;exitY=1;exitDx=0;exitDy=0;entryX=0.5;entryY=0;entryDx=0;entryDy=0;" edge="1" parent="1" source="FA3HhS_Ftb2r7vfs98mW-20" target="FA3HhS_Ftb2r7vfs98mW-2">
          <mxGeometry relative="1" as="geometry" />
        </mxCell>
        <mxCell id="FA3HhS_Ftb2r7vfs98mW-20" value="Definir Promedio, N1, N2, N3, N4, N5, N6 Como Real" style="whiteSpace=wrap;html=1;fillColor=#ffe6cc;strokeColor=#d79b00;" vertex="1" parent="1">
          <mxGeometry x="266" y="140" width="296" height="30" as="geometry" />
        </mxCell>
        <mxCell id="FA3HhS_Ftb2r7vfs98mW-23" value="FinProceso" style="ellipse;whiteSpace=wrap;html=1;fillColor=#fff2cc;strokeColor=#d6b656;" vertex="1" parent="1">
          <mxGeometry x="376" y="841.25" width="76" height="28.75" as="geometry" />
        </mxCell>
      </root>
    </mxGraphModel>
  </diagram>
</mxfile>
